<svg width="800" height="800" viewBox="0 0 800 800" fill="none" xmlns="http://www.w3.org/2000/svg">
<path d="M576.783 576.796C522.171 631.458 506.583 709.683 528.421 778.558C584.796 759.521 637.958 727.896 682.896 682.908C727.896 637.958 759.496 584.808 778.546 528.446C709.671 506.621 631.458 522.171 576.783 576.796Z" fill="white"/>
<path d="M223.071 223.083C277.683 168.408 293.221 90.1958 271.433 21.2958C215.058 40.3458 161.896 71.9583 116.908 116.958C71.9584 161.908 40.3459 215.058 21.2458 271.446C90.1959 293.221 168.408 277.696 223.071 223.083Z" fill="white"/>
<path d="M370.621 1.07083C398.508 101.958 373.058 214.521 293.808 293.846C214.521 373.046 101.958 398.508 1.07089 370.608C-5.96661 466.896 21.6834 565.021 83.9709 645.071L645.083 84.0333C565.021 21.6833 466.858 -5.96667 370.621 1.07083Z" fill="white"/>
<path d="M715.821 154.771L154.783 715.833C234.846 778.158 333.008 805.821 429.246 798.796C401.358 697.921 426.758 585.346 506.058 506.046C585.346 426.796 697.921 401.358 798.796 429.283C805.833 332.996 778.171 234.846 715.821 154.771Z" fill="white"/>
</svg>
