<svg width="569" height="650" viewBox="0 0 569 650" fill="none" xmlns="http://www.w3.org/2000/svg">
<path d="M446.5 0H122.25C89.8479 0.066 58.7916 12.9671 35.8791 35.8791C12.9679 58.7913 0.0663641 89.8475 0.000239055 122.25V576.25C-0.0346359 589.932 3.74699 603.354 10.9204 615.005C18.0941 626.656 28.3754 636.076 40.6091 642.206C52.8416 648.335 66.5416 650.931 80.1691 649.703C93.7966 648.474 106.81 643.469 117.75 635.25L270.25 521C274.354 517.956 279.328 516.312 284.438 516.312C289.548 516.312 294.522 517.956 298.625 521L451 635.125C461.928 643.347 474.933 648.36 488.553 649.597C502.173 650.836 515.868 648.253 528.099 642.136C540.332 636.02 550.617 626.615 557.797 614.975C564.978 603.336 568.772 589.926 568.75 576.25V122.25C568.684 89.8475 555.783 58.7913 532.872 35.8791C509.959 12.9671 478.903 0.066 446.5 0Z" fill="#DB5905"/>
</svg>
