<svg width="650" height="650" viewBox="0 0 650 650" fill="none" xmlns="http://www.w3.org/2000/svg">
<path d="M649.281 346.355C649.462 345.075 649.544 343.783 649.526 342.491C649.835 336.699 649.993 330.869 650 325C650.069 250.962 624.734 179.141 578.226 121.533C577.024 119.572 575.556 117.787 573.866 116.228C539.357 75.1143 495.244 43.1431 445.432 23.1445C444.279 22.586 443.083 22.1177 441.857 21.7438C366.648 -7.24846 283.347 -7.24791 208.139 21.7453C206.915 22.1194 205.721 22.5872 204.569 23.1445C154.758 43.1427 110.645 75.1133 76.1362 116.226C74.4446 117.786 72.9764 119.572 71.7733 121.533C25.266 179.141 -0.0687423 250.962 0.000140093 325C0.000140093 330.875 0.158576 336.712 0.475451 342.511C0.458257 343.792 0.539643 345.072 0.718889 346.341C4.19468 400.071 21.0543 452.079 49.7629 497.629C50.649 499.469 51.7574 501.193 53.0634 502.763C96.9729 569.8 164.024 618.327 241.426 639.087C241.761 639.198 242.108 639.267 242.449 639.365C296.566 653.545 353.424 653.545 407.542 639.366C407.886 639.268 408.237 639.198 408.576 639.087C485.977 618.326 553.027 569.8 596.937 502.763C598.243 501.193 599.351 499.469 600.237 497.629C628.943 452.082 645.803 400.08 649.281 346.355ZM139.185 290.912L180.334 304.282L220.14 426.794L194.71 461.797L86.4671 461.74C67.5239 428.845 55.6486 392.361 51.5993 354.617L139.185 290.912ZM510.815 290.912L598.401 354.617C594.352 392.361 582.476 428.845 563.533 461.74L455.29 461.797L429.86 426.794L469.666 304.282L510.815 290.912ZM528.731 140.48L495.363 243.359L454.215 256.729L350 181.012V137.746L437.641 74.1425C472.237 89.7649 503.245 112.347 528.731 140.48ZM212.361 74.1425L300 137.746V181.012L195.785 256.729L154.637 243.359L121.27 140.48C146.756 112.347 177.764 89.7648 212.361 74.1425ZM268.69 594.194L235.161 491.187L260.591 456.183H389.409L414.84 491.187L381.311 594.194C344.17 601.935 305.831 601.935 268.69 594.194Z" fill="white"/>
</svg>
