<svg width="131" height="25" viewBox="0 0 131 25" fill="none" xmlns="http://www.w3.org/2000/svg">
<path d="M16.0341 8.32955C15.9053 7.85227 15.7159 7.43182 15.4659 7.06818C15.2159 6.69697 14.9091 6.38258 14.5455 6.125C14.1818 5.86742 13.7652 5.67424 13.2955 5.54545C12.8258 5.40909 12.3106 5.34091 11.75 5.34091C10.6212 5.34091 9.64394 5.61364 8.81818 6.15909C8 6.70454 7.36742 7.5 6.92045 8.54545C6.47348 9.58333 6.25 10.8447 6.25 12.3295C6.25 13.822 6.46591 15.0947 6.89773 16.1477C7.32955 17.2008 7.95455 18.0038 8.77273 18.5568C9.59091 19.1098 10.5833 19.3864 11.75 19.3864C12.7803 19.3864 13.6515 19.2197 14.3636 18.8864C15.0833 18.5455 15.6288 18.0644 16 17.4432C16.3712 16.822 16.5568 16.0909 16.5568 15.25L17.6023 15.375H11.9432V11.2727H21.9773V14.3523C21.9773 16.4356 21.5341 18.2197 20.6477 19.7045C19.7689 21.1894 18.5568 22.3295 17.0114 23.125C15.4735 23.9205 13.7045 24.3182 11.7045 24.3182C9.48485 24.3182 7.53409 23.8371 5.85227 22.875C4.17045 21.9129 2.85985 20.5417 1.92045 18.7614C0.981061 16.9735 0.511364 14.8523 0.511364 12.3977C0.511364 10.4886 0.795455 8.79545 1.36364 7.31818C1.93182 5.83333 2.72348 4.57576 3.73864 3.54545C4.76136 2.51515 5.94318 1.73485 7.28409 1.20454C8.63258 0.674241 10.0833 0.40909 11.6364 0.40909C12.9848 0.40909 14.2386 0.602272 15.3977 0.988636C16.5644 1.375 17.5947 1.92045 18.4886 2.625C19.3902 3.32955 20.1212 4.16667 20.6818 5.13636C21.2424 6.10606 21.5909 7.17045 21.7273 8.32955H16.0341ZM25.2926 24V0.727272H41.5199V5.29545H30.9176V10.0682H40.6903V14.6477H30.9176V19.4318H41.5199V24H25.2926ZM44.2812 5.29545V0.727272H63.9517V5.29545H56.8949V24H51.3494V5.29545H44.2812ZM65.9375 5.29545V0.727272H85.608V5.29545H78.5511V24H73.0057V5.29545H65.9375ZM109.259 12.3636C109.259 14.9242 108.766 17.0947 107.781 18.875C106.796 20.6553 105.463 22.0076 103.781 22.9318C102.107 23.8561 100.228 24.3182 98.1449 24.3182C96.054 24.3182 94.1714 23.8523 92.4972 22.9205C90.8229 21.9886 89.4934 20.6364 88.5085 18.8636C87.5312 17.0833 87.0426 14.9167 87.0426 12.3636C87.0426 9.80303 87.5312 7.63258 88.5085 5.85227C89.4934 4.07197 90.8229 2.7197 92.4972 1.79545C94.1714 0.871211 96.054 0.40909 98.1449 0.40909C100.228 0.40909 102.107 0.871211 103.781 1.79545C105.463 2.7197 106.796 4.07197 107.781 5.85227C108.766 7.63258 109.259 9.80303 109.259 12.3636ZM103.509 12.3636C103.509 10.8485 103.293 9.56818 102.861 8.52273C102.437 7.47727 101.823 6.6856 101.02 6.14773C100.224 5.60985 99.2661 5.34091 98.1449 5.34091C97.0313 5.34091 96.0729 5.60985 95.2699 6.14773C94.4669 6.6856 93.8494 7.47727 93.4176 8.52273C92.9934 9.56818 92.7812 10.8485 92.7812 12.3636C92.7812 13.8788 92.9934 15.1591 93.4176 16.2045C93.8494 17.25 94.4669 18.0417 95.2699 18.5795C96.0729 19.1174 97.0313 19.3864 98.1449 19.3864C99.2661 19.3864 100.224 19.1174 101.02 18.5795C101.823 18.0417 102.437 17.25 102.861 16.2045C103.293 15.1591 103.509 13.8788 103.509 12.3636ZM112.543 24V0.727272H122.156C123.899 0.727272 125.402 1.06818 126.668 1.75C127.94 2.42424 128.921 3.36742 129.611 4.57954C130.3 5.78409 130.645 7.18561 130.645 8.78409C130.645 10.3902 130.293 11.7955 129.588 13C128.891 14.197 127.895 15.125 126.599 15.7841C125.304 16.4432 123.766 16.7727 121.986 16.7727H116.054V12.3409H120.94C121.789 12.3409 122.497 12.1932 123.065 11.8977C123.641 11.6023 124.077 11.1894 124.372 10.6591C124.668 10.1212 124.815 9.49621 124.815 8.78409C124.815 8.06439 124.668 7.44318 124.372 6.92045C124.077 6.39015 123.641 5.98106 123.065 5.69318C122.49 5.4053 121.781 5.26136 120.94 5.26136H118.168V24H112.543Z" fill="url(#paint0_linear_655_2)"/>
<defs>
<linearGradient id="paint0_linear_655_2" x1="-1" y1="12.5" x2="132" y2="12.5" gradientUnits="userSpaceOnUse">
<stop stop-color="#DB5905"/>
<stop offset="1" stop-color="#CC1713"/>
</linearGradient>
</defs>
</svg>
