<svg width="800" height="699" viewBox="0 0 800 699" fill="none" xmlns="http://www.w3.org/2000/svg">
<path fill-rule="evenodd" clip-rule="evenodd" d="M456.567 674.805L731.372 400C777.125 354.247 800 299.017 800 234.314C800 169.61 777.125 114.382 731.372 68.6292C685.618 22.8764 630.387 0 565.685 0C500.98 0 445.753 22.8764 400 68.6292C354.247 22.8764 299.017 0 234.314 0C169.61 0 114.382 22.8764 68.6292 68.6292C22.8764 114.382 0 169.61 0 234.314C0 299.017 22.8764 354.247 68.6292 400L343.432 674.805C374.672 706.045 425.327 706.045 456.567 674.805Z" fill="url(#paint0_radial_199_3)"/>
<defs>
<radialGradient id="paint0_radial_199_3" cx="0" cy="0" r="1" gradientUnits="userSpaceOnUse" gradientTransform="translate(201.999 241.539) rotate(59.8757) scale(468.243 512.18)">
<stop stop-color="#DB5905"/>
<stop offset="1" stop-color="#CC1713"/>
</radialGradient>
</defs>
</svg>
