<svg width="149" height="142" viewBox="0 0 149 142" fill="none" xmlns="http://www.w3.org/2000/svg">
<path fill-rule="evenodd" clip-rule="evenodd" d="M149 70.9999C149 80.7981 140.656 88.7503 130.375 88.7503H93.125V124.25C93.125 134.048 84.781 142 74.5 142C64.219 142 55.875 134.048 55.875 124.25V88.7503H18.625C8.34405 88.7503 0 80.7981 0 70.9999C0 61.2022 8.34405 53.25 18.625 53.25H55.875V17.75C55.875 7.95202 64.219 0 74.5 0C84.781 0 93.125 7.95202 93.125 17.75V53.25H130.375C140.656 53.25 149 61.2022 149 70.9999Z" fill="#E0E0E0"/>
</svg>
