<svg width="321" height="306" viewBox="0 0 321 306" fill="none" xmlns="http://www.w3.org/2000/svg">
<path fill-rule="evenodd" clip-rule="evenodd" d="M320.5 152.952C320.5 173.981 302.58 191.048 280.5 191.048H200.5V267.238C200.5 288.267 182.58 305.333 160.5 305.333C138.42 305.333 120.5 288.267 120.5 267.238V191.048H40.5001C18.4201 191.048 0.5 173.981 0.5 152.952C0.5 131.924 18.4201 114.857 40.5001 114.857H120.5V38.6666C120.5 17.6381 138.42 0.571411 160.5 0.571411C182.58 0.571411 200.5 17.6381 200.5 38.6666V114.857H280.5C302.58 114.857 320.5 131.924 320.5 152.952Z" fill="white"/>
</svg>
