<svg width="617" height="700" viewBox="0 0 617 700" fill="none" xmlns="http://www.w3.org/2000/svg">
<path d="M308.5 274C384.163 274 445.5 212.663 445.5 137C445.5 61.337 384.163 0 308.5 0C232.837 0 171.5 61.337 171.5 137C171.5 212.663 232.837 274 308.5 274Z" fill="#DB5905"/>
<path d="M497 700H120C88.174 700 57.6515 687.357 35.1472 664.853C12.6428 642.348 0 611.826 0 580C0.0661878 511.86 27.1641 446.529 75.3467 398.347C123.529 350.164 188.86 323.066 257 323H360C428.14 323.066 493.471 350.164 541.653 398.347C589.836 446.529 616.934 511.86 617 580C617 611.826 604.357 642.348 581.853 664.853C559.348 687.357 528.826 700 497 700Z" fill="#DB5905"/>
</svg>
