<svg width="667" height="667" viewBox="0 0 667 667" fill="none" xmlns="http://www.w3.org/2000/svg">
<g clip-path="url(#clip0_672_11)">
<mask id="mask0_672_11" style="mask-type:luminance" maskUnits="userSpaceOnUse" x="0" y="0" width="667" height="667">
<path d="M667 0H0V667H667V0Z" fill="white"/>
</mask>
<g mask="url(#mask0_672_11)">
<path d="M216.996 0.000243094H449.667C457.417 -0.0017569 463.357 -0.0030883 468.55 0.504912C505.477 4.11724 535.703 26.3192 548.52 56.2259H118.143C130.96 26.3192 161.185 4.11724 198.112 0.504912C203.306 -0.0030883 209.247 -0.0017569 216.996 0.000243094Z" fill="#F3F3F3"/>
<path d="M143.684 90.7706C97.3296 90.7706 59.3209 118.762 46.6366 155.897C46.3722 156.671 46.1186 157.449 45.8762 158.231C59.1479 154.212 72.9602 151.586 86.9422 149.794C122.955 145.177 168.466 145.179 221.334 145.182H451.07C503.937 145.179 549.45 145.177 585.463 149.794C599.443 151.586 613.257 154.212 626.527 158.231C626.287 157.449 626.033 156.671 625.767 155.897C613.083 118.762 575.073 90.7706 528.72 90.7706H143.684Z" fill="#F3F3F3"/>
<path fill-rule="evenodd" clip-rule="evenodd" d="M444.253 184.735H222.413C109.919 184.735 53.6723 184.735 22.0773 217.629C-9.51766 250.523 -2.08398 301.343 12.7837 402.987L26.8827 499.37C38.542 579.08 44.3717 618.933 74.278 642.8C104.184 666.667 148.293 666.667 236.511 666.667H430.153C518.373 666.667 562.483 666.667 592.39 642.8C622.297 618.933 628.123 579.08 639.783 499.37L653.883 402.987C668.75 301.347 676.183 250.523 644.59 217.629C612.993 184.735 556.747 184.735 444.253 184.735ZM419.373 459.807C437.987 448.27 437.987 418.397 419.373 406.86L306.987 337.187C288.897 325.973 266.667 340.57 266.667 363.663V503.003C266.667 526.097 288.897 540.693 306.987 529.48L419.373 459.807Z" fill="#F3F3F3"/>
</g>
</g>
<defs>
<clipPath id="clip0_672_11">
<rect width="667" height="667" fill="white"/>
</clipPath>
</defs>
</svg>
