<svg width="800" height="800" viewBox="0 0 800 800" fill="none" xmlns="http://www.w3.org/2000/svg">
<path d="M598.908 263.261C589.366 277.05 579.047 290.246 568.164 302.969C527.772 350.088 479.025 389.703 424.189 419.655C424.098 423.124 424.098 426.596 424.098 429.974C424.098 483.453 433.442 536.539 451.372 586.566C460.716 582.518 469.862 578.18 479.025 573.644C598.312 514.197 696.508 421.877 763.305 306.438C769.164 296.227 774.766 285.908 780.061 275.407C771.675 249.686 760.398 224.332 746.334 199.95C725.895 164.597 700.95 133.564 672.628 107.25C659.128 155.816 638.687 201.504 612.391 243.127C608.055 249.975 603.625 256.718 598.908 263.261Z" fill="white"/>
<path d="M559.672 231.76H559.778C563.355 226.646 566.719 221.547 569.991 216.343C597.538 172.785 618.084 124.311 629.727 72.4738C619.133 65.0488 608.252 58.1082 597.081 51.8519C536.934 17.9269 468.724 -0.0918355 399.628 0.000351973C331.781 0.000351973 263.172 17.166 200.058 53.5722C182.039 63.9816 165.267 75.5472 149.561 88.1816C284.281 92.6097 414.269 134.05 526.816 208.627C538 216.052 548.989 223.753 559.672 231.76Z" fill="white"/>
<path d="M173.362 302.102C190.044 303.549 206.617 305.953 223.084 309.133C284.464 320.988 343.545 344.016 397.026 377.361C447.325 350.378 492.131 314.339 529.039 271.558C519.314 264.236 509.284 257.207 499.072 250.449C388.047 176.817 258.928 137.886 125.576 137.886C116.126 137.886 106.584 138.1 97.1468 138.572C79.889 158.616 64.7749 180.105 51.9452 202.842C32.4796 237.436 18.2187 274.647 9.6499 313.183C48.003 304.127 86.9186 299.789 125.575 299.789C141.57 299.789 157.458 300.564 173.362 302.102Z" fill="white"/>
<path d="M163.439 385.26C164.109 374.089 165.083 362.902 166.223 351.732C152.739 350.468 139.148 349.889 125.573 349.889C84.1312 349.889 42.3078 355.491 1.45938 366.952C0.485937 378.047 0 389.11 0 400.297C0.0921875 468.144 17.2578 536.753 53.6781 599.868C90.7844 664.046 142.819 713.95 202.95 747.966C216.814 755.88 231.181 762.819 245.913 768.877C190.713 664.23 161.994 548.502 161.994 430.552C161.994 415.425 162.481 400.297 163.439 385.26Z" fill="white"/>
<path d="M424.191 651.414C416.87 636.286 410.419 620.869 404.817 605.163C384.5 549.171 373.998 489.907 373.998 429.974C373.998 427.371 373.998 424.769 374.091 422.166C325.616 391.227 271.848 369.843 215.963 358.869C214.898 368.594 214.03 378.41 213.452 388.349C212.583 402.411 212.097 416.489 212.097 430.552C212.097 548.988 243.13 664.808 302.683 768.116C307.111 775.816 311.738 783.427 316.547 790.944H316.655C344.123 796.833 372.159 799.816 400.406 799.816C438.652 799.816 477.003 794.322 514.58 783.046C485.588 752.5 460.811 718.866 440.492 682.918C434.692 672.614 429.197 662.113 424.191 651.414Z" fill="white"/>
<path d="M796.638 348.155C725.425 464.385 623.669 557.664 501.384 618.45C491.264 623.472 481.141 628.282 470.839 632.725C474.978 641.385 479.408 649.878 484.125 658.249C505.905 696.799 533.269 732.35 566.036 763.764C577.511 758.468 588.88 752.699 599.961 746.246C664.231 709.127 714.044 657.107 748.075 596.975C781.995 536.844 800 468.616 800 399.521C799.908 382.368 798.859 365.232 796.638 348.155Z" fill="white"/>
</svg>
